<svg xmlns="http://www.w3.org/2000/svg" width="533.95" height="281.072" viewBox="0 0 533.95 281.072"><g transform="translate(96.566 -510.195)"><path d="M-13.24,534.384S-23.813,423.962,120.648,423.962s280.554,163.8,377.2,55.6l22.542,45.365s-64.077,48.32-157.567,32.564S68.59,482.253,24.471,575.743-13.24,534.384-13.24,534.384Z" transform="translate(-83.001 86.233)" fill="#757575"/><path d="M-13.338,521.969s7.355-68.47,115.6-68.47,254.315,101.637,336.123,10.048v50.419S376.688,670.8,297.548,657.462,46.364,513.7,9.017,592.843-13.338,521.969-13.338,521.969Z" transform="translate(-42 133)" fill="#3e3e3e"/><path d="M13.872,571.052s48.551-30.055,115.6-18.5,211.544,117.909,334.077,32.367" transform="translate(-42 -3)" fill="none" stroke="#fff" stroke-width="7" stroke-dasharray="37"/></g></svg>